<?xml version="1.0" encoding="UTF-8"?> <!-- Generator: Adobe Illustrator 23.0.2, SVG Export Plug-In . SVG Version: 6.00 Build 0) --> <svg xmlns="http://www.w3.org/2000/svg" xmlns:xlink="http://www.w3.org/1999/xlink" id="Layer_1" x="0px" y="0px" viewBox="0 0 993 253" style="enable-background:new 0 0 993 253;" xml:space="preserve"> <style type="text/css"> .st0{fill:#231F20;} .st1{fill:#287ABE;} .st2{fill:#FFFFFF;} </style> <path class="st0" d="M622.25,104.88c-2.56-1.58-5.52-2.37-8.48-2.37c-13.81,0-23.87,10.06-23.87,38.47v39.85h-17.76V88.51h17.76 v16.57c4.54-14.2,13.61-19.73,27.62-19.73c3.55,0,6.71,0.79,8.48,1.78L622.25,104.88z"></path> <path class="st0" d="M672.37,184c-27.62,0-48.73-21.9-48.73-49.72s20.91-48.93,48.73-48.93c28.01,0,49.12,21.5,49.12,48.93 C721.49,161.7,700.38,184,672.37,184z M672.56,102.32c-17.76,0-31.17,12.82-31.17,31.96c0,19.53,13.81,32.75,31.17,32.75 c17.95,0,31.17-13.61,31.17-32.75C703.73,114.95,689.73,102.32,672.56,102.32z"></path> <path class="st0" d="M746.75,138.03c1.38,19.93,11.84,29,27.42,29c11.64,0,20.12-3.95,25.65-15l14.8,7.89 c-8.09,15.59-20.92,24.07-40.64,24.07c-28.41,0-44.98-20.52-44.98-49.91c0-28.61,19.73-48.73,44.59-48.73 c25.85,0,43.41,18.35,43.41,46.17v6.51H746.75z M773.58,102.32c-13.42,0-24.46,7.69-26.43,23.48h52.28 C797.85,110.41,788.58,102.32,773.58,102.32z"></path> <path class="st0" d="M849.36,232.14h-19.53l23.48-55.24l-38.87-88.39h19.33l28.61,68.07l26.44-68.07h19.53L849.36,232.14z"></path> <path class="st1" d="M919.18,96.78c-2.12,0-3.76-1.7-3.76-3.76c0-2.12,1.7-3.76,3.76-3.76c2.06,0,3.76,1.64,3.76,3.76 C922.94,95.08,921.3,96.78,919.18,96.78z"></path> <path class="st1" d="M943.73,96.78c-4.43,0-7.71-1.76-9.59-5.4v4.43h-5.46V45.75h5.46v25.73c1.94-3.16,4.98-5.04,9.47-5.04 c8.07,0,13.35,6.19,13.35,14.99C956.96,90.47,951.62,96.78,943.73,96.78z M942.76,71.66c-5.16,0-8.62,3.46-8.62,9.65 c0,6.31,3.76,10.25,8.8,10.25c5.04,0,8.56-3.88,8.56-10.07C951.5,75.36,947.98,71.66,942.76,71.66z"></path> <path class="st1" d="M964.9,82.64c0.42,6.13,3.64,8.92,8.43,8.92c3.58,0,6.19-1.21,7.89-4.61l4.55,2.43 c-2.49,4.79-6.43,7.4-12.5,7.4c-8.74,0-13.83-6.31-13.83-15.35c0-8.8,6.07-14.99,13.71-14.99c7.95,0,13.35,5.64,13.35,14.2v2H964.9z M973.16,71.66c-4.13,0-7.52,2.37-8.13,7.22h16.08C980.62,74.15,977.77,71.66,973.16,71.66z"></path> <rect y="-0.4" class="st1" width="252.94" height="252.94"></rect> <path class="st0" d="M333.97,185.18l-44.98-96.67h20.13l24.86,58.6l24.46-58.6h20.32L333.97,185.18z"></path> <path class="st0" d="M450.58,180.84v-14.4c-6.12,11.84-16.77,17.56-31.17,17.56c-25.65,0-43.01-20.52-43.01-49.91 c0-28.61,17.16-48.73,43.4-48.73c14.6,0,24.46,6.12,30.78,16.38V88.51h17.76v92.33H450.58z M422.57,102.32 c-16.97,0-28.41,12.03-28.41,31.96c0,20.12,11.44,32.75,27.82,32.75c16.38,0,28.61-12.82,28.61-33.34 C450.58,113.56,439.34,102.32,422.57,102.32z"></path> <path class="st0" d="M541.35,180.84v-54.65c0-17.95-6.51-25.06-19.14-25.06c-13.81,0-23.48,10.65-23.48,35.31v44.39h-17.75V88.51 h17.75v13.02c5.33-10.46,15.19-16.18,29.59-16.18c17.76,0,30.78,11.84,30.78,36.3v59.19H541.35z"></path> <g> <polygon class="st2" points="42.99,128.79 42.99,233.63 92.59,233.63 181.43,79.44 139.04,79.44 77.71,186.53 77.71,128.8 "></polygon> <polygon class="st2" points="144.21,71.01 186.04,71.01 193.61,57.75 151.38,57.75 "></polygon> <polygon class="st2" points="156.57,50.93 198.39,50.93 205.96,37.67 163.73,37.67 "></polygon> <polygon class="st2" points="168.91,30.85 210.74,30.85 218.31,17.59 176.08,17.59 "></polygon> </g> </svg> 